<?xml version="1.0" standalone="no"?>
<!DOCTYPE svg PUBLIC "-//W3C//DTD SVG 20010904//EN"
 "http://www.w3.org/TR/2001/REC-SVG-20010904/DTD/svg10.dtd">
<svg version="1.0" xmlns="http://www.w3.org/2000/svg"
 width="3368.000000pt" height="2382.000000pt" viewBox="0 0 3368.000000 2382.000000"
 preserveAspectRatio="xMidYMid meet">

<g transform="translate(0.000000,2382.000000) scale(0.100000,-0.100000)"
fill="#000000" stroke="none">
<path d="M8732 12886 c-229 -44 -410 -134 -560 -280 -176 -170 -273 -388 -288
-646 -19 -334 124 -646 384 -839 189 -139 424 -211 692 -211 525 0 928 287
1046 745 22 83 26 124 27 240 0 77 -5 167 -12 200 -82 393 -347 666 -749 772
-84 22 -123 26 -282 29 -128 2 -207 -1 -258 -10z m353 -531 c186 -51 306 -249
292 -480 -7 -110 -29 -181 -82 -260 -77 -115 -193 -175 -335 -175 -249 0 -419
191 -420 470 0 322 250 526 545 445z"/>
<path d="M15578 12881 c-345 -75 -593 -262 -724 -545 -97 -210 -117 -483 -53
-717 66 -244 246 -462 480 -584 186 -96 357 -131 603 -122 242 8 411 58 575
167 88 59 222 187 220 212 0 7 -91 93 -201 191 l-201 178 -71 -69 c-126 -122
-216 -158 -376 -150 -81 4 -108 10 -161 35 -159 75 -249 231 -249 430 1 196
90 352 243 423 186 87 392 45 546 -110 l68 -69 202 180 c110 99 201 186 201
193 0 16 -132 147 -195 192 -76 55 -218 120 -330 150 -89 24 -121 27 -295 30
-163 3 -209 1 -282 -15z"/>
<path d="M20675 12880 c-434 -87 -737 -393 -800 -810 -68 -445 135 -854 519
-1043 166 -82 325 -117 536 -117 270 0 493 67 672 201 66 49 178 162 178 179
0 5 -91 90 -202 189 l-202 181 -65 -64 c-128 -123 -219 -160 -376 -154 -87 3
-109 8 -167 35 -160 75 -248 227 -248 428 0 138 38 247 116 334 80 89 190 135
325 134 133 -1 230 -44 344 -154 l70 -68 203 181 c111 99 202 184 202 190 0
15 -109 126 -171 173 -119 93 -279 160 -448 189 -129 22 -366 20 -486 -4z"/>
<path d="M2390 12850 c0 -5 95 -433 210 -951 116 -518 210 -944 210 -946 0 -2
145 -2 322 -1 l322 3 485 780 486 779 3 -782 2 -782 795 0 795 0 0 245 0 245
-475 0 -475 0 0 120 0 120 400 0 400 0 0 240 0 240 -400 0 -400 0 0 105 0 105
455 0 455 0 0 245 0 245 -1007 0 -1008 -1 -334 -539 c-183 -297 -336 -540
-340 -540 -3 0 -58 243 -121 540 l-115 540 -332 0 c-206 0 -333 -4 -333 -10z"/>
<path d="M6280 11905 l0 -955 755 0 755 0 0 255 0 255 -430 0 -430 0 0 700 0
700 -325 0 -325 0 0 -955z"/>
<path d="M10980 12605 l0 -255 280 0 280 0 0 -700 0 -700 325 0 325 0 0 700 0
700 280 0 280 0 0 255 0 255 -885 0 -885 0 0 -255z"/>
<path d="M12990 11905 l0 -955 795 0 795 0 0 245 0 245 -475 0 -475 0 0 120 0
120 400 0 400 0 0 240 0 240 -400 0 -400 0 0 105 0 105 455 0 455 0 0 245 0
245 -775 0 -775 0 0 -955z"/>
<path d="M16890 11905 l0 -955 325 0 325 0 0 350 0 350 290 0 290 0 0 -350 0
-350 325 0 325 0 0 955 0 955 -325 0 -325 0 0 -335 0 -335 -290 0 -290 0 0
335 0 335 -325 0 -325 0 0 -955z"/>
<path d="M21980 11905 l0 -955 795 0 795 0 0 245 0 245 -475 0 -475 0 0 120 0
120 405 0 405 0 0 240 0 240 -405 0 -405 0 0 105 0 105 460 0 460 0 0 245 0
245 -780 0 -780 0 0 -955z"/>
<path d="M23840 11905 l0 -955 315 0 315 0 2 425 3 424 355 -424 355 -425 268
0 267 0 0 955 0 955 -315 0 -315 0 -2 -424 -3 -424 -355 424 -354 424 -268 0
-268 0 0 -955z"/>
<path d="M25900 12605 l0 -255 280 0 280 0 0 -700 0 -700 325 0 325 0 0 700 0
700 280 0 280 0 0 255 0 255 -885 0 -885 0 0 -255z"/>
<path d="M27850 11905 l0 -955 325 0 325 0 0 240 0 240 83 0 82 0 160 -240
160 -239 349 -1 c275 0 347 3 343 13 -2 6 -88 134 -189 282 -101 149 -187 275
-191 281 -4 6 23 31 64 59 182 124 279 318 279 556 0 320 -190 572 -504 668
-151 46 -219 51 -768 51 l-518 0 0 -955z m1005 431 c86 -37 125 -98 125 -196
0 -71 -16 -114 -56 -152 -55 -52 -95 -62 -266 -66 l-158 -4 0 222 0 222 158
-4 c119 -3 167 -9 197 -22z"/>
<path d="M29900 11905 l0 -955 795 0 795 0 0 245 0 245 -475 0 -475 0 0 120 0
120 400 0 400 0 0 240 0 240 -400 0 -400 0 0 105 0 105 455 0 455 0 0 245 0
245 -775 0 -775 0 0 -955z"/>
</g>
</svg>
