<?xml version="1.0" standalone="no"?>
<!DOCTYPE svg PUBLIC "-//W3C//DTD SVG 20010904//EN"
 "http://www.w3.org/TR/2001/REC-SVG-20010904/DTD/svg10.dtd">
<svg version="1.0" xmlns="http://www.w3.org/2000/svg"
 width="3368.000000pt" height="2383.000000pt" viewBox="0 0 3368.000000 2383.000000"
 preserveAspectRatio="xMidYMid meet">

<g transform="translate(0.000000,2383.000000) scale(0.100000,-0.100000)"
fill="#000000" stroke="none">
<path d="M0 11915 l0 -11915 16840 0 16840 0 0 11915 0 11915 -16840 0 -16840
0 0 -11915z m18870 5961 c626 -82 1135 -313 1534 -696 87 -83 236 -253 236
-269 0 -9 -1038 -936 -1049 -936 -4 0 -33 30 -64 66 -126 149 -315 303 -466
379 -78 39 -211 84 -311 106 -123 27 -380 25 -510 -3 -224 -48 -391 -136 -540
-283 -110 -108 -163 -182 -226 -314 -87 -184 -126 -376 -126 -616 0 -304 68
-553 211 -770 57 -87 187 -216 281 -279 280 -187 662 -240 1020 -141 113 31
286 120 397 204 89 67 236 209 306 295 l27 33 77 -68 c41 -38 274 -245 517
-461 242 -216 445 -400 450 -407 21 -31 -254 -317 -439 -457 -372 -279 -795
-444 -1325 -516 -107 -14 -200 -18 -445 -18 -330 1 -434 10 -676 60 -1024 210
-1778 911 -2014 1871 -83 336 -97 758 -39 1114 130 789 608 1443 1321 1807
352 180 676 270 1148 317 98 10 586 -3 705 -18z m-10092 -1508 c167 -783 306
-1432 311 -1442 5 -15 206 302 901 1423 l894 1441 2413 0 2413 0 0 -650 0
-650 -725 0 -725 0 0 -1830 0 -1830 -840 0 -840 0 0 1830 0 1830 -397 -2 -396
-3 -1137 -1825 -1137 -1825 -824 0 -824 0 -552 2475 c-304 1361 -552 2476
-553 2478 0 1 386 2 858 2 l858 0 302 -1422z m7476 -5524 c281 -22 567 -154
767 -353 256 -255 371 -617 315 -991 -74 -487 -419 -842 -936 -962 -127 -29
-410 -36 -555 -13 -532 83 -917 438 -1011 932 -24 126 -22 340 4 463 112 529
537 883 1117 930 98 8 141 7 299 -6z m8206 -11 c113 -16 274 -65 361 -108 98
-49 221 -137 295 -211 40 -40 77 -82 83 -92 9 -16 -20 -46 -226 -230 l-237
-211 -88 84 c-129 123 -250 175 -408 175 -153 0 -280 -51 -374 -149 -101 -107
-148 -237 -148 -411 0 -67 6 -129 17 -169 67 -256 270 -403 535 -388 156 9
260 57 384 178 77 76 80 77 101 61 11 -9 119 -104 238 -211 175 -156 215 -196
208 -210 -18 -32 -133 -142 -204 -195 -134 -100 -267 -160 -447 -203 -142 -33
-426 -43 -575 -20 -527 84 -896 418 -1001 907 -25 118 -26 381 0 498 64 298
224 542 459 701 289 195 630 263 1027 204z m-15360 -42 c0 -9 268 -1268 273
-1284 1 -5 184 284 406 642 l403 651 1189 0 1189 0 0 -285 0 -285 -540 0 -540
0 0 -130 0 -130 475 0 475 0 -2 -272 -3 -273 -472 -3 -473 -2 0 -145 0 -145
560 0 560 0 0 -285 0 -285 -935 0 -935 0 -2 930 -3 931 -579 -931 -580 -930
-375 2 -374 3 -243 1090 c-134 600 -246 1102 -249 1118 l-7 27 391 0 c221 0
391 -4 391 -9z m4582 -818 l3 -828 508 -3 507 -2 0 -290 0 -290 -890 0 -890 0
0 1120 0 1120 380 0 380 0 2 -827z m6878 537 l0 -290 -330 0 -330 0 0 -830 0
-830 -380 0 -380 0 0 830 0 830 -330 0 -330 0 0 290 0 290 1040 0 1040 0 0
-290z m2110 5 l0 -285 -540 0 -540 0 0 -130 0 -130 475 0 475 0 0 -275 0 -275
-475 0 -475 0 0 -145 0 -145 565 0 565 0 0 -285 0 -285 -935 0 -935 0 0 1120
0 1120 910 0 910 0 0 -285z m3550 -110 l0 -395 350 0 350 0 0 395 0 395 375 0
375 0 0 -1120 0 -1120 -375 0 -375 0 -2 413 -3 412 -347 3 -348 2 0 -415 0
-415 -380 0 -380 0 0 1120 0 1120 380 0 380 0 0 -395z m-15467 -2415 c198 -42
347 -108 497 -221 78 -59 190 -174 190 -195 0 -9 -381 -357 -453 -413 -16 -12
-25 -6 -95 63 -188 188 -442 235 -666 124 -203 -101 -311 -359 -262 -626 49
-271 242 -435 511 -435 162 0 281 50 410 174 56 54 88 78 97 73 38 -23 458
-408 458 -420 0 -20 -145 -163 -222 -217 -295 -210 -741 -281 -1139 -182 -546
136 -889 572 -889 1130 0 615 419 1079 1052 1164 117 16 396 6 511 -19z m2767
-305 l0 -285 -537 -2 -538 -3 0 -130 0 -130 473 -3 472 -2 0 -270 0 -270 -475
0 -476 0 3 -147 3 -148 563 -3 562 -2 0 -285 0 -285 -935 0 -935 0 0 1125 0
1125 910 0 910 0 0 -285z m1415 -220 c231 -277 423 -504 428 -504 4 -1 7 226
7 504 l0 505 365 0 365 0 0 -1125 0 -1125 -309 0 -309 0 -423 506 -424 506 -3
-506 -2 -506 -370 0 -370 0 0 1125 0 1125 313 0 312 -1 420 -504z m3475 210
l0 -295 -330 0 -330 0 0 -830 0 -830 -380 0 -380 0 0 830 0 830 -330 0 -330 0
0 295 0 295 1040 0 1040 0 0 -295z m1478 284 c412 -44 709 -251 807 -563 118
-369 -1 -738 -299 -933 -39 -26 -73 -48 -74 -49 -3 -2 282 -426 415 -617 l55
-77 -408 2 -408 3 -161 237 c-88 131 -175 258 -193 283 l-32 46 -98 -3 -97 -3
-3 -282 -2 -283 -380 0 -380 0 0 1125 0 1125 580 0 c339 0 621 -4 678 -11z
m2992 -274 l0 -285 -537 -2 -538 -3 0 -130 0 -130 473 -3 472 -2 0 -270 0
-270 -475 0 -476 0 3 -147 3 -148 558 -3 557 -2 0 -285 0 -285 -930 0 -930 0
0 1125 0 1125 910 0 910 0 0 -285z"/>
<path d="M15953 10225 c-181 -49 -317 -199 -359 -397 -19 -87 -14 -267 9 -339
58 -181 180 -305 345 -350 274 -77 542 85 617 372 23 86 23 253 1 338 -51 190
-184 330 -357 376 -68 18 -188 18 -256 0z"/>
<path d="M19390 7119 l0 -261 198 4 c173 4 202 7 242 25 95 44 140 119 140
235 0 100 -31 166 -97 208 -70 45 -101 50 -300 50 l-183 0 0 -261z"/>
</g>
</svg>
